<svg preserveAspectRatio="none" width="100%" height="100%" overflow="visible" style="display: block;" viewBox="0 0 1071 204" fill="none" xmlns="http://www.w3.org/2000/svg">
<path id="&#232;&#183;&#175;&#229;&#190;&#132;" opacity="0.1" fill-rule="evenodd" clip-rule="evenodd" d="M1071 152.025H1019.96V101.05H1071V152.025ZM968.914 101.05V50.0755H1019.96V101.05H968.914ZM968.914 152.025H917.871V101.05H968.914V152.025ZM866.828 101.05V50.0755H917.871V101.05H866.828ZM866.828 152.025H815.786V101.05H866.828V152.025ZM764.743 101.05V50.0755H815.786V101.05H764.743ZM764.743 152.025H713.7V101.05H764.743V152.025ZM662.657 101.05V50.0755H713.7V101.05H662.657ZM662.657 152.025H611.614V101.05H662.657V152.025ZM560.571 101.05V50.0755H611.614V101.05H560.571ZM560.571 152.025H509.528V101.05H560.571V152.025ZM458.485 101.05V50.0755H509.528V101.05H458.485ZM458.485 152.025H407.442V101.05H458.485V152.025ZM356.4 101.05V50.0755H407.442V101.05H356.4ZM356.4 152.025H305.357V101.05H356.4V152.025ZM254.314 101.05V50.0755H305.357V101.05H254.314ZM254.314 152.025H203.271V101.05H254.314V152.025ZM152.228 101.05V50.0755H203.271V101.05H152.228ZM152.228 152.025H101.185V101.05H152.228V152.025ZM51.0429 101.05V50.0755H101.185V101.05H51.0429ZM0 152.025V101.05H51.0429V152.025H0ZM0 0H51.0429V50.0755H0V0ZM101.185 0H152.228V50.0755H101.185V0ZM203.271 0H254.314V50.0755H203.271V0ZM305.357 0H356.4V50.0755H305.357V0ZM407.442 0H458.485V50.0755H407.442V0ZM509.528 0H560.571V50.0755H509.528V0ZM611.614 0H662.657V50.0755H611.614V0ZM713.7 0H764.743V50.0755H713.7V0ZM815.786 0H866.828V50.0755H815.786V0ZM917.871 0H968.914V50.0755H917.871V0ZM1019.96 0H1071V50.0755H1019.96V0ZM101.185 204H51.0429V153.025H101.185V204ZM203.271 204H152.228V153.025H203.271V204ZM305.357 204H254.314V153.025H305.357V204ZM407.442 204H356.4V153.025H407.442V204ZM509.528 204H458.485V153.025H509.528V204ZM611.614 204H560.571V153.025H611.614V204ZM713.7 204H662.657V153.025H713.7V204ZM815.786 204H764.743V153.025H815.786V204ZM917.871 204H866.828V153.025H917.871V204ZM1019.96 204H968.914V153.025H1019.96V204Z" fill="url(#paint0_linear_2_8)"/>
<defs>
<linearGradient id="paint0_linear_2_8" x1="187.425" y1="65.5714" x2="187.425" y2="198.171" gradientUnits="userSpaceOnUse">
<stop stop-color="white"/>
<stop offset="1" stop-color="white" stop-opacity="0.01"/>
</linearGradient>
</defs>
</svg>
